REM Ripping Tool: trurip

FILE "Quiz Avenue (1990)(NEC Avenue)(JP).img" BINARY
  TRACK 01 AUDIO
    INDEX 01 00:00:00
  TRACK 02 MODE1/2352
    INDEX 00 00:44:65
    INDEX 01 00:47:65
  TRACK 03 AUDIO
    INDEX 00 04:30:04
    INDEX 01 04:32:04
  TRACK 04 AUDIO
    INDEX 01 06:31:30
  TRACK 05 AUDIO
    INDEX 01 08:21:70
  TRACK 06 AUDIO
    INDEX 01 10:23:55
  TRACK 07 MODE1/2352
    INDEX 00 14:46:22
    INDEX 01 14:49:22

REM DISC HASHES
REM CRC32 : d65897bd
REM MD5   : 15e1843a1e991299e752219a2c92b6bf
REM SHA1  : 97261fd6424b8828d98b65cdc28cd34f8460dd18

REM Gap Append Method: Prev [crc32]
REM Trk 01: ccd25d2f
REM Trk 02: 85b50b48
REM Trk 03: 5b7672e7
REM Trk 04: 6a2499a2
REM Trk 05: 5bfcc75e
REM Trk 06: f3d96e79
REM Trk 07: d754bcde

REM Gap Append Method: Prev [md5]
REM Trk 01: 7938d9aa88f644b60389fa8246f2052e
REM Trk 02: 7179b37f6a3e6515b05b774c2f51e679
REM Trk 03: e32482ce80ebd7610d899a3197854c10
REM Trk 04: dc5eb390f80818fde7cb4c4af3b4f7dd
REM Trk 05: aea55c81356a976790ffd14683a77ba0
REM Trk 06: 5bc8843df4b09fbb63c45fd40ce22e90
REM Trk 07: 828af59e1767d071653179fd4071c3ae

REM Gap Append Method: Prev [sha1]
REM Trk 01: 0fc7f8840f23f43ebfb7041f71427c165f368105
REM Trk 02: 19b9af8e172904e3210cefcab1b9a9b65840df69
REM Trk 03: 3c9b67e7f50e9d45f3ae07d6bc8ba2dbfd1ba900
REM Trk 04: b21c955f8e3e3a0bea83e0861119036c50abebb1
REM Trk 05: 2cccac0cac8b1606dc2b097fb7fe67b07b764a9a
REM Trk 06: ef02a1f974654952cceda3408583291b21288912
REM Trk 07: ffe64efd5f21f99704616377dabdb97a0397daa7

REM Gap Append Method: None [crc32]
REM Trk 01: b979500c
REM Trk 02: f17d2f70
REM Trk 03: 5b7672e7
REM Trk 04: 6a2499a2
REM Trk 05: 5bfcc75e
REM Trk 06: 6f24d778
REM Trk 07: d754bcde
REM Gap 02: 16e86594
REM Gap 03: 7abe247f
REM Gap 07: c6c97f1b

REM Gap Append Method: None [md5]
REM Trk 01: a25a2c129b7100092cc40e9b6e176a63
REM Trk 02: 22398d3c251d68b694d7930552ea81b5
REM Trk 03: e32482ce80ebd7610d899a3197854c10
REM Trk 04: dc5eb390f80818fde7cb4c4af3b4f7dd
REM Trk 05: aea55c81356a976790ffd14683a77ba0
REM Trk 06: e9b8dfa49c56b0d177eedd95e0754ed2
REM Trk 07: 828af59e1767d071653179fd4071c3ae
REM Gap 02: fbd314ec9876f082e173fbb5baf092aa
REM Gap 03: 9df204fbc98bb8965081cb30a89715fc
REM Gap 07: 3e69ee24b3d4245a4cf28e2aaf135a4f

REM Gap Append Method: None [sha1]
REM Trk 01: 9ac3f1a11d434d186466917f1c7955bf7670c910
REM Trk 02: 866b5c2695a07946321ec3bbc56e0b297d72f56f
REM Trk 03: 3c9b67e7f50e9d45f3ae07d6bc8ba2dbfd1ba900
REM Trk 04: b21c955f8e3e3a0bea83e0861119036c50abebb1
REM Trk 05: 2cccac0cac8b1606dc2b097fb7fe67b07b764a9a
REM Trk 06: a2ae89870dbdc2cb5982a7588cacf778a2f5f28c
REM Trk 07: ffe64efd5f21f99704616377dabdb97a0397daa7
REM Gap 02: 08a9af7bae10b281a8edaad6e9ea6cd1646d0ce0
REM Gap 03: cbe29e0bd725ef1194f8c47619dd42078e841de2
REM Gap 07: d60a37e0c0581ffc3fce8032ec9b5f5269316bfa

REM Gap Append Method: Next [crc32]
REM Trk 01: b979500c
REM Trk 02: c0947d45
REM Trk 03: 7fcf526e
REM Trk 04: 6a2499a2
REM Trk 05: 5bfcc75e
REM Trk 06: 6f24d778
REM Trk 07: 69dda495

REM Gap Append Method: Next [md5]
REM Trk 01: a25a2c129b7100092cc40e9b6e176a63
REM Trk 02: 0b6d822fef0cef530d6cae06bd1e421e
REM Trk 03: 73ef0f856f82b1b12296aed5f6f6ce54
REM Trk 04: dc5eb390f80818fde7cb4c4af3b4f7dd
REM Trk 05: aea55c81356a976790ffd14683a77ba0
REM Trk 06: e9b8dfa49c56b0d177eedd95e0754ed2
REM Trk 07: d9cffaee4206bd84e2f51024702d6d8c

REM Gap Append Method: Next [sha1]
REM Trk 01: 9ac3f1a11d434d186466917f1c7955bf7670c910
REM Trk 02: dfea116198f0e403379e4e72056c6be64d603ae1
REM Trk 03: e3a9e2e74b7f038372b30870b1ede3c19941064c
REM Trk 04: b21c955f8e3e3a0bea83e0861119036c50abebb1
REM Trk 05: 2cccac0cac8b1606dc2b097fb7fe67b07b764a9a
REM Trk 06: a2ae89870dbdc2cb5982a7588cacf778a2f5f28c
REM Trk 07: df213732c9d951376171193ae49111608449c09d

